<?xml version="1.0"?>
<svg xmlns="http://www.w3.org/2000/svg" xmlns:xlink="http://www.w3.org/1999/xlink" xmlns:svgjs="http://svgjs.com/svgjs" version="1.1" width="512" height="512" x="0" y="0" viewBox="0 0 612 612" style="enable-background:new 0 0 512 512" xml:space="preserve" class=""><g>
<g xmlns="http://www.w3.org/2000/svg">
	<g>
		<path d="M600.195,3.203c-27.612-27.612-229.2,129.21-343.928,243.94c-27.811,27.809-47.495,50.998-61.13,70.498    c18.725,5.797,36.292,16.375,51.568,31.655c6.546,6.546,12.677,13.948,18.225,21.996c8.543,12.401,14.531,25.428,18.065,38.877    c20.061-13.681,44.126-33.916,73.261-63.042C470.985,232.402,627.807,30.815,600.195,3.203z" fill="#ffd369" data-original="#000000" style=""/>
		<path d="M93.801,364.184c-105.658,61.408-10.941,144.218-85.2,218.472c53.607,53.611,138.564,26.071,185.785-21.154    c43.828-43.819,79.004-106.442,38.846-164.758C199.203,347.336,145.419,334.186,93.801,364.184z" fill="#ffd369" data-original="#000000" style=""/>
	</g>
</g>
<g xmlns="http://www.w3.org/2000/svg">
</g>
<g xmlns="http://www.w3.org/2000/svg">
</g>
<g xmlns="http://www.w3.org/2000/svg">
</g>
<g xmlns="http://www.w3.org/2000/svg">
</g>
<g xmlns="http://www.w3.org/2000/svg">
</g>
<g xmlns="http://www.w3.org/2000/svg">
</g>
<g xmlns="http://www.w3.org/2000/svg">
</g>
<g xmlns="http://www.w3.org/2000/svg">
</g>
<g xmlns="http://www.w3.org/2000/svg">
</g>
<g xmlns="http://www.w3.org/2000/svg">
</g>
<g xmlns="http://www.w3.org/2000/svg">
</g>
<g xmlns="http://www.w3.org/2000/svg">
</g>
<g xmlns="http://www.w3.org/2000/svg">
</g>
<g xmlns="http://www.w3.org/2000/svg">
</g>
<g xmlns="http://www.w3.org/2000/svg">
</g>
</g></svg>
